inDegrees=yes
name=ik_lifting_orientations
DataType=double
version=3
OpenSimVersion=4.5-2024-01-10-34fd6af
endheader
time	pelvis_tilt	pelvis_list	pelvis_rotation	pelvis_tx	pelvis_ty	pelvis_tz	hip_flexion_r	hip_adduction_r	hip_rotation_r	knee_angle_r	knee_angle_r_beta	ankle_angle_r	subtalar_angle_r	mtp_angle_r	hip_flexion_l	hip_adduction_l	hip_rotation_l	knee_angle_l	knee_angle_l_beta	ankle_angle_l	subtalar_angle_l	mtp_angle_l	lumbar_extension	lumbar_bending	lumbar_rotation	arm_flex_r	arm_add_r	arm_rot_r	elbow_flex_r	pro_sup_r	wrist_flex_r	wrist_dev_r	arm_flex_l	arm_add_l	arm_rot_l	elbow_flex_l	pro_sup_l	wrist_flex_l	wrist_dev_l
0.57	-7.134102503340828	-33.32017195030105	-103.6936191721199	0	0.9399999998679526	0	18.16457136480826	-7.872900531172144	0	24.9596612127518	0.4356282683448399	-4.436804820798142	0	0	18.16457136480826	-7.872900531172144	0	24.9596612127518	0.4356282683448399	-4.436804820798142	0	0	-59.13404010641889	-2.288936973019288	21.58359966143344	18.3259423017267	-12.4430784180864	10.78359018700487	14.97120216835977	55.35791124392266	0	0	0	-2.914312881325344	0	34.78384374530305	55.35791124392266	0	0
0.58	-6.862951892274618	-31.81800621600609	-103.1835017031743	0	0.9399999998679526	0	18.33131086735999	-7.903422175291777	0	25.21018070120832	0.4400006582588179	-4.446537659564216	0	0	18.33131086735999	-7.903422175291777	0	25.21018070120832	0.4400006582588179	-4.446537659564216	0	0	-56.25551793561939	-1.606073620672957	21.56463765242964	17.61549780722348	-11.78379749739789	10.04324603237985	15.02031030557346	55.05148476677198	0	0	0	-2.95724242417715	0	35.08908689179374	55.05148476677198	0	0
0.59	-6.869681951674639	-31.8204528009635	-103.1917944385101	0	0.9399999998679526	0	18.42452595711062	-7.920402998365346	0	25.34956589482476	0.4424333888159547	-4.451941032643715	0	0	18.42452595711062	-7.920402998365346	0	25.34956589482476	0.4424333888159547	-4.451941032643715	0	0	-54.90492414483499	-2.408206602854549	21.51048645970159	17.69327409365128	-10.97978875637145	10.00565944775325	15.48589141553463	54.88025150698006	0	0	0	-2.981279703314853	0	35.25966108521028	54.88025150698006	0	0
0.6	-7.537227200889189	-29.92171704391234	-103.556865737835	0	0.9399999998679526	0	18.61534389195484	-7.95436048066418	0	25.6351959391519	0.4474185735320806	-4.462654194543536	0	0	18.61534389195484	-7.95436048066418	0	25.6351959391519	0.4474185735320806	-4.462654194543536	0	0	-52.92772375722711	-1.039444331058692	22.0325848876411	18.4850652235916	-12.33410431448177	10.65152261324721	17.15067453092294	54.53149472283332	0	0	0	-3.031100635931334	0	35.60711484749017	54.53149472283332	0	0
0.61	-7.790855172702418	-29.27947808166781	-102.7675116555057	0	0.9399999998679526	0	18.83097587057748	-7.992850005046766	0	25.95774206359573	0.4530480653931727	-4.474817673031505	0	0	18.83097587057748	-7.992850005046766	0	25.95774206359573	0.4530480653931727	-4.474817673031505	0	0	-49.62031800081009	-0.5674218239972785	21.69302031960581	16.93221581751697	-10.94438192749677	10.40326668159365	18.44301952892314	54.13749328592749	0	0	0	-3.087417443368536	0	35.99964460648805	54.13749328592749	0	0
0.62	-7.801586434093841	-29.28139224506238	-102.7760023699814	0	0.9399999998679526	0	18.92232499046107	-8.009595120517442	0	26.09320675037765	0.4554123701977001	-4.480158223282723	0	0	18.92232499046107	-8.009595120517442	0	26.09320675037765	0.4554123701977001	-4.480158223282723	0	0	-47.48404724681378	0.01934248706651854	21.96691731154102	17.15684895214634	-12.11356683424489	10.85706809596153	17.07200137265901	53.9696760137202	0	0	0	-3.110932457624665	0	36.16681431264272	53.9696760137202	0	0
0.63	-7.557265905228099	-27.8077958466798	-102.2843093755562	0	0.9399999998679526	0	19.17460852635956	-8.053979517963578	0	26.46823184179286	0.4619577928204883	-4.494103719992016	0	0	19.17460852635956	-8.053979517963578	0	26.46823184179286	0.4619577928204883	-4.494103719992016	0	0	-43.28882662153075	-0.1030024694086095	21.7246566677743	15.57879823421661	-10.75688883251529	11.10670927110562	18.40598807785401	53.50969895085699	0	0	0	-3.177249216289377	0	36.62509775312507	53.50969895085699	0	0
0.64	-6.80697591781872	-27.61524587616613	-101.7413111218503	0	0.9399999998679526	0	19.33754169529423	-8.082329504655213	0	26.70874086050874	0.4661554670778211	-4.502970922621427	0	0	19.33754169529423	-8.082329504655213	0	26.70874086050874	0.4661554670778211	-4.502970922621427	0	0	-41.82914259272182	0.05323933594009175	20.164870498892	16.33135182033809	-10.69432820770473	12.40003146609615	19.33641076319773	53.21292332075478	0	0	0	-3.220253275483071	0	36.92078948706296	53.21292332075478	0	0
0.65	-7.483057205334023	-25.72130427266635	-102.1013976613177	0	0.9399999998679526	0	19.49096855360575	-8.109144794269122	0	26.93434097996029	0.4700929319551431	-4.511370687198694	0	0	19.49096855360575	-8.109144794269122	0	26.93434097996029	0.4700929319551431	-4.511370687198694	0	0	-38.2392061732206	0.5754068899600422	21.42157711257826	16.21958943001792	-11.61220800615425	12.37418857729343	21.17167340243372	52.93326005456846	0	0	0	-3.26065781432453	0	37.19942631068282	52.93326005456846	0	0
0.66	-7.490844771524996	-25.72848655692005	-102.0955722619303	0	0.9399999998679526	0	19.66157984732035	-8.138070254441658	0	27.18425174593758	0.4744546976576278	-4.520324121607153	0	0	19.66157984732035	-8.138070254441658	0	27.18425174593758	0.4744546976576278	-4.520324121607153	0	0	-38.26093143486681	0.5877564797336131	21.42775429089046	16.6727234681538	-12.58572647120627	12.96951973556063	23.70849353366489	52.62340206965708	0	0	0	-3.306161775822011	0	37.5081774425761	52.62340206965708	0	0
0.67	-7.283270063675167	-24.26243238866297	-101.6333844745291	0	0.9399999998679526	0	19.9684070411913	-8.190411690405437	0	27.63551891978447	0.4823307956474256	-4.536580351254218	0	0	19.9684070411913	-8.190411690405437	0	27.63551891978447	0.4823307956474256	-4.536580351254218	0	0	-34.60163956167979	1.489826386023412	21.37370157728262	15.82231238045127	-15.08265372551957	13.24626149497589	27.16706616046856	52.06669826473596	0	0	0	-3.388079107752121	0	38.06289783129218	52.06669826473596	0	0
0.68	-6.871464269372106	-23.39850187620865	-100.3540823576365	0	0.9399999998679526	0	20.16991311322564	-8.224116116175489	0	27.92882051722514	0.4874498742241244	-4.546962861015129	0	0	20.16991311322564	-8.224116116175489	0	27.92882051722514	0.4874498742241244	-4.546962861015129	0	0	-31.80148442140943	1.75493016176646	20.88382738808727	14.63171341979578	-15.92991163842461	12.20961378510434	29.02728469837128	51.70148378178476	0	0	0	-3.44221873582839	0	38.42682653311093	51.70148378178476	0	0
0.6899999999999999	-5.061027792760115	-20.65553111463343	-98.28876134142277	0	0.9399999998679526	0	20.63223356845106	-8.300627287293146	0	28.59669983485163	0.4991065673226797	-4.570402781552676	0	0	20.63223356845106	-8.300627287293146	0	28.59669983485163	0.4991065673226797	-4.570402781552676	0	0	-28.20916560992004	0.9105189697672624	19.71052165258846	15.73464884746391	-18.94459023150533	13.24535002862874	37.85359249399451	50.86410918956449	0	0	0	-3.566712612823792	0	39.26127099652386	50.86410918956449	0	0
0.7	-5.063019263937359	-20.65859096849267	-98.28877312910804	0	0.9399999998679526	0	20.80467859202243	-8.328853008613965	0	28.84355745063506	0.5034150455017237	-4.579017807536492	0	0	20.80467859202243	-8.328853008613965	0	28.84355745063506	0.5034150455017237	-4.579017807536492	0	0	-25.92671152129248	1.341023971698993	20.84903121170694	13.72762813440224	-20.65506010047379	11.90680101716504	42.12504851386215	50.55199279423866	0	0	0	-3.613384070122507	0	39.5723036932695	50.55199279423866	0	0
